<svg width="77" height="77" viewBox="0 0 77 77" fill="none" xmlns="http://www.w3.org/2000/svg">
<g clip-path="url(#clip0)">
<path d="M48.1551 36.6652L40.6807 51.6141C39.7783 53.4338 37.1615 53.3736 36.3344 51.5238L27.7772 32.5295L23.2654 43.3125H9.11369L36.56 71.3604C37.6278 72.4582 39.3572 72.4582 40.425 71.3604L67.8863 43.3125H51.4787L48.1551 36.6652ZM71.2401 11.1139L70.8791 10.7379C63.134 2.82736 50.4561 2.82736 42.6959 10.7379L38.5 15.0391L34.3041 10.7529C26.559 2.82736 13.866 2.82736 6.12091 10.7529L5.75998 11.1139C-1.56405 18.6033 -1.87987 30.5293 4.66212 38.5H20.0621L25.4611 25.5363C26.2733 23.5963 29.0104 23.5512 29.8826 25.4762L38.6354 44.9217L46.0045 30.1985C46.8918 28.4238 49.4184 28.4238 50.3057 30.1985L54.4565 38.5H72.3379C78.8799 30.5293 78.5641 18.6033 71.2401 11.1139V11.1139Z" fill="#0085FF"/>
</g>
<defs>
<clipPath id="clip0">
<rect width="77" height="77" fill="white"/>
</clipPath>
</defs>
</svg>
